<svg width="22" height="25" viewBox="0 0 22 25" fill="none" xmlns="http://www.w3.org/2000/svg">
<path fill-rule="evenodd" clip-rule="evenodd" d="M1.00088 17.9095C0.948087 20.8244 3.26719 23.2308 6.18209 23.2857H15.3188C18.2337 23.2308 20.5528 20.8244 20.5001 17.9095L19.8914 11.38C19.7369 8.91845 18.0144 6.83656 15.6253 6.22389C15.1274 6.07907 14.6117 6.00499 14.0932 6.00383H7.40775C6.88927 6.00499 6.37352 6.07907 5.87568 6.22389C3.48804 6.83675 1.7664 8.91711 1.61093 11.3772L1.00088 17.9095Z" stroke="white" stroke-width="1.5" stroke-linecap="round" stroke-linejoin="round"/>
<path fill-rule="evenodd" clip-rule="evenodd" d="M7.27529 15.0977C6.33662 14.0523 6.33662 12.4675 7.27529 11.4221C7.72553 10.9658 8.35048 10.7255 8.99046 10.7625C9.63044 10.7996 10.2235 11.1105 10.618 11.6157C10.6507 11.6506 10.6963 11.6704 10.7441 11.6704C10.7918 11.6704 10.8375 11.6506 10.8701 11.6157C11.2647 11.1105 11.8577 10.7996 12.4977 10.7625C13.1376 10.7255 13.7626 10.9658 14.2128 11.4221C15.1515 12.4675 15.1515 14.0523 14.2128 15.0977L12.4955 16.9654C12.0413 17.4438 11.4107 17.7147 10.751 17.7147C10.0914 17.7147 9.46069 17.4438 9.00654 16.9654L7.27529 15.0977Z" stroke="white" stroke-width="1.5" stroke-linecap="round" stroke-linejoin="round"/>
<path d="M15.6246 8.50526V5.69042C15.572 3.04991 13.3903 0.95115 10.7498 1.00087C8.10924 0.95115 5.92757 3.04991 5.875 5.69042V8.50387" stroke="white" stroke-width="1.5" stroke-linecap="round" stroke-linejoin="round"/>
</svg>
